<svg width="120.06" height="120" version="1.1" viewBox="0 0 3.6016 3.6" xmlns="http://www.w3.org/2000/svg">
 <defs>
  <style>.cls-1{fill:#4285f4;}.cls-2{fill:#669df6;}</style>
 </defs>
 <title>Icon_24px_CloudNAT_Color</title>
 <g transform="matrix(.18 0 0 .18 -.3583 -.36)" data-name="Product Icons">
  <path class="cls-1" d="m15.3 11.17v1.66h4.5v-1.66z"/>
  <path class="cls-1" d="m9.86 5.89h-2.86v1.67h3.93a10 10 0 0 0-1.07-1.67z"/>
  <path class="cls-1" d="m11 16.44h-3.4v1.67h2.29a10.7 10.7 0 0 0 1.11-1.67z"/>
  <path class="cls-1" d="m12 12a7.45 7.45 0 0 0 0-0.83h-7.5v1.66h7.5a7.45 7.45 0 0 0 0-0.83z"/>
  <path class="cls-2" d="m3.67 12.48a0.48 0.48 0 1 1 0.47-0.48 0.48 0.48 0 0 1-0.47 0.48zm0-2.15a1.67 1.67 0 1 0 1.66 1.67 1.67 1.67 0 0 0-1.66-1.67z"/>
  <path class="cls-2" d="m6.17 17.75a0.48 0.48 0 1 1 0.47-0.48 0.47 0.47 0 0 1-0.47 0.48zm0-2.14a1.67 1.67 0 1 0 1.66 1.66 1.67 1.67 0 0 0-1.66-1.66z"/>
  <path class="cls-2" d="m6.17 7.2a0.48 0.48 0 1 1 0.47-0.47 0.47 0.47 0 0 1-0.47 0.47zm0-2.14a1.67 1.67 0 1 0 0 3.33 1.67 1.67 0 0 0 0-3.33z"/>
  <polygon class="cls-1" points="18.67 14.5 18.67 9.5 22 12"/>
  <path class="cls-1" d="m9.5 22-0.86-1.5a10.73 10.73 0 0 0 4.19-8.5 10.89 10.89 0 0 0-4.2-8.5l0.87-1.5a12.53 12.53 0 0 1 5 10 12.46 12.46 0 0 1-5 10z"/>
 </g>
</svg>
